<?xml version="1.0" ?><!DOCTYPE svg  PUBLIC '-//W3C//DTD SVG 1.1//EN'  'http://www.w3.org/Graphics/SVG/1.1/DTD/svg11.dtd'><svg enable-background="new 0 0 100 100" height="100px" id="Layer_1" version="1.1" viewBox="0 0 100 100" width="100px" xml:space="preserve" xmlns="http://www.w3.org/2000/svg" xmlns:xlink="http://www.w3.org/1999/xlink"><g><circle cx="50" cy="50" r="45"/><path clip-rule="evenodd" d="M51.896,57.746c-0.478,0-0.912,0-1.378,0c0,0.117,0,0.223,0,0.328   c-0.002,2.162,0.005,4.326-0.012,6.49c-0.006,0.723-0.197,1.414-0.512,2.062c-0.426,0.887-1.178,1.336-2.117,1.508   c-0.157,0.027-0.321,0.061-0.479,0.051c-0.146-0.01-0.29-0.074-0.46-0.121c0.16-0.268,0.282-0.484,0.414-0.695   c0.422-0.668,0.617-1.416,0.628-2.189c0.033-2.322,0.025-4.646,0.036-6.971c0-0.043-0.013-0.088-0.019-0.131   c-0.634,0.098-1.098,0.672-1.132,1.4c-0.014,0.305-0.004,0.607-0.004,0.912c0,1.342-0.052,2.686,0.013,4.023   c0.094,1.896-1.26,2.639-2.565,2.805c-0.308,0.039-0.623,0.021-0.936,0.01c-0.109-0.004-0.229-0.043-0.327-0.098   c-0.248-0.139-0.274-0.406-0.066-0.6c0.092-0.086,0.19-0.168,0.296-0.229c1.102-0.631,1.485-1.598,1.382-2.824   c-0.082-0.957-0.124-1.918-0.185-2.881c-0.26,0.059-0.558,0.141-0.861,0.191c-1.321,0.223-2.541-0.084-3.734-0.648   c-0.897-0.424-1.47-1.141-1.973-1.941c-0.358-0.564-0.648-1.188-1.074-1.693c-0.585-0.691-1.267-1.303-1.921-1.936   c-0.266-0.262-0.277-0.395,0.03-0.615c0.537-0.387,1.098-0.236,1.629-0.008c0.674,0.293,1.155,0.828,1.611,1.385   c0.604,0.732,1.218,1.449,2.02,1.984c1.396,0.934,3.078,0.93,4.443-0.041c0.078-0.057,0.14-0.16,0.176-0.252   c0.34-0.918,0.952-1.582,1.855-1.969c0.334-0.143,0.67-0.285,1.083-0.461c-0.545-0.068-1.015-0.123-1.48-0.188   c-2.014-0.283-3.952-0.787-5.718-1.85c-1.935-1.166-3.08-2.885-3.574-5.057c-0.504-2.227-0.508-4.449,0.176-6.643   c0.334-1.072,0.943-1.998,1.673-2.844c0.118-0.135,0.154-0.246,0.104-0.426c-0.502-1.783-0.302-3.537,0.228-5.277   c0.036-0.119,0.078-0.238,0.118-0.357c0.008-0.023,0.024-0.045,0.07-0.139c0.661,0.117,1.349,0.207,2.022,0.369   c1.399,0.334,2.663,0.969,3.812,1.83c0.146,0.107,0.271,0.131,0.441,0.088c1.714-0.439,3.461-0.646,5.226-0.656   c1.729-0.008,3.44,0.178,5.132,0.547c0.21,0.047,0.364,0.01,0.546-0.104c1.176-0.729,2.351-1.477,3.734-1.754   c0.619-0.127,1.253-0.18,1.879-0.27c0.158-0.021,0.238,0.023,0.286,0.189c0.52,1.725,0.728,3.471,0.392,5.262   c-0.02,0.102,0.018,0.25,0.088,0.326c1.384,1.529,2.073,3.352,2.297,5.375c0.172,1.551,0.061,3.086-0.281,4.605   c-0.506,2.256-1.781,3.949-3.732,5.178c-1.43,0.898-2.991,1.375-4.645,1.604c-0.537,0.072-1.079,0.125-1.659,0.191   c0.074,0.049,0.126,0.088,0.181,0.121c0.275,0.164,0.554,0.328,0.829,0.492c1.14,0.672,1.724,1.699,1.899,2.982   c0.034,0.256,0.052,0.516,0.056,0.773c0.036,1.975,0.066,3.949,0.106,5.922c0.002,0.109,0.042,0.23,0.102,0.322   c0.326,0.516,0.766,0.912,1.289,1.223c0.177,0.104,0.347,0.207,0.294,0.453c-0.05,0.232-0.231,0.314-0.434,0.336   c-1.249,0.135-2.343-0.189-3.181-1.162c-0.315-0.367-0.374-0.84-0.374-1.314c-0.002-1.625,0-3.254-0.002-4.881   c0-0.178-0.006-0.357-0.031-0.533c-0.101-0.652-0.526-1.098-1.226-1.264c0,0.104,0,0.197,0,0.291c0,2.145-0.006,4.291,0.002,6.438   c0.002,0.4,0.04,0.801,0.086,1.201c0.046,0.404,0.2,0.768,0.432,1.109c0.196,0.287,0.326,0.621,0.508,0.98   c-0.18,0.035-0.284,0.084-0.38,0.068c-0.701-0.104-1.388-0.27-1.961-0.721c-0.651-0.512-0.901-1.25-1.067-2.016   c-0.086-0.398-0.116-0.814-0.118-1.223c-0.012-2.039-0.006-4.076-0.006-6.115C51.896,57.975,51.896,57.869,51.896,57.746z" fill="#FFFFFF" fill-rule="evenodd"/></g></svg>